# xmcd
#
# Track frame offsets:
#	150
#	19127
#	36604
#	53556
#	73208
#	90235
#	106887
#	125189
#	144541
#	161193
#	177920
#	197122
#	220149
#	239651
#	257353
#
# Disc length: 3697 seconds
#
# Revision: 0
# Processed by: cddbd v1.5.1PL0 Copyright (c) Steve Scherf et al.
# Submitted via: dBpowerAMP V4.0
#
DISCID=df0e6f0f
DTITLE=Tina Turner - Simply the best
DYEAR=1991
DGENRE=Pop
TTITLE0=The Best
TTITLE1=What´s Love Got To Do With It
TTITLE2=Can´t Stand The Rain
TTITLE3=Don´t Wanna Lose You
TTITLE4=Nutbush City Limits
TTITLE5=Let´s Stay Together
TTITLE6=Private Dancer
TTITLE7=We Don´t Need Another
TTITLE8=Better Be Good To Me
TTITLE9=River Deep - Mountain High
TTITLE10=It Takes Two
TTITLE11=Addicted To Love
TTITLE12=Be Tender With Me Baby
TTITLE13=Want You Near Me
TTITLE14=Way Of The World
EXTD=Capitol CDP 79 6630 2
EXTT0=
EXTT1=
EXTT2=
EXTT3=
EXTT4=
EXTT5=
EXTT6=
EXTT7=
EXTT8=
EXTT9=
EXTT10=
EXTT11=
EXTT12=
EXTT13=
EXTT14=
PLAYORDER=
